<?xml version="1.0"?>
<svg xmlns="http://www.w3.org/2000/svg" version="1.1" xmlns:xlink="http://www.w3.org/1999/xlink" x="0" y="0" width="160px" height="160px" viewBox="0 0 160 160">
  <defs>
   <symbol id="fog" >
      <path fill="#EFEFEF" d="M55.333,60.667c0-2.394-1.94-4.333-4.333-4.333H26.667c-2.394,0-4.333,1.94-4.333,4.333l0,0c0,2.393,1.94,4.333,4.333,4.333H51C53.394,65,55.333,63.06,55.333,60.667L55.333,60.667z"/>
    </symbol>
  </defs>
  <g id="luna">
  <linearGradient id="lunGradLB" x1="0" y1="0.05" x2="1" y2="0">
  <stop  offset="0" style="stop-color:#FFF165"/>
  <stop  offset="1" style="stop-color:#FECB47"/>
  </linearGradient>
  <path fill="url(#lunGradLB)" stroke="#FEEF67" stroke-width="3" stroke-miterlimit="10" d="M122.283,96.729
  c-15.568,5.667-32.785-2.359-38.451-17.928c-5.667-15.569,2.361-32.785,17.932-38.451c0.137-0.051,0.275-0.092,0.414-0.139
  c-9.607-4.302-21.055-5.119-31.718-1.238c-21.769,7.923-32.994,31.995-25.071,53.763c7.923,21.769,31.994,32.989,53.762,25.066
  c10.695-3.892,18.836-11.687,23.42-21.187C122.475,96.652,122.381,96.693,122.283,96.729z"/>
  </g>
  <use xlink:href="#fog" class="fogMo1LB"/>
  <use xlink:href="#fog" class="fogMo1LB" x="37"/>
  <use xlink:href="#fog" class="fogMo1LB" x="74"/>
  <use xlink:href="#fog" class="fogMo2LB" x="10" y="18"/>
  <use xlink:href="#fog" class="fogMo2LB" x="47" y="18"/>
  <use xlink:href="#fog" class="fogMo2LB" x="84" y="18"/>
  <use xlink:href="#fog" class="fogMo1LB" y="36"/>
  <use xlink:href="#fog" class="fogMo1LB" x="37" y="36"/>
  <use xlink:href="#fog" class="fogMo1LB" x="74" y="36"/>
  <style>
  
    .fogMo1LB {
      animation-name: fogMoves1LB;
      animation-duration: 1320ms;
      animation-iteration-count: infinite;
    }
    @keyframes fogMoves1LB {
      0%   { transform: translate(-5px); }
      52%  { transform: translate(10px); }
      100% { transform: translate(-5px); }
    }
    .fogMo2LB {
      animation-name: fogMoves2LB;
      animation-duration: 1320ms;
      animation-iteration-count: infinite;
    }
    @keyframes fogMoves2LB {
      0%   { transform: translate(5px); }
      52%  { transform: translate(-10px); }
      100% { transform: translate(5px); }
    }
  </style>
</svg>