<?xml version="1.0"?>
<svg xmlns="http://www.w3.org/2000/svg" version="1.1" xmlns:xlink="http://www.w3.org/1999/xlink" x="0" y="0" width="160px" height="160px" viewBox="0 0 160 160">
  <defs>
  <linearGradient id="lunGradLN2" x1="0" y1="0.05" x2="1" y2="0">
  <stop  offset="0" style="stop-color:#FFF165"/>
  <stop  offset="1" style="stop-color:#FECB47"/>
  </linearGradient>
    <linearGradient id="nuvGradLN2" gradientUnits="userSpaceOnUse" x1="21.4624" y1="61.6909" x2="137.5488" y2="61.6909">
      <stop offset="0" style="stop-color:#FCFBF9;stop-opacity:1"/>
      <stop offset="1" style="stop-color:#FFFEFD;stop-opacity:0.6"/>
    </linearGradient>
    <clipPath id="nuvOmbraLN2">
     <path class="nuvMoLN2" d="M123.034,73.998c4.838,0.928,13.771,4.067,14.47,14.613c0.632,9.541-5.395,16.814-17.534,19.088c0,0-88.119,0-90.368,0c-2.71,0-8.139-3.278-8.139-10.237c0-13.165,14.885-11.579,14.885-11.579s-2.991-9.745,5.396-17.725c10.799-10.279,25.625-2.728,25.625-2.728s7.208-18.492,26.975-17.725c23.415,0.91,25.627,25.906,25.627,25.906S121.211,73.648,123.034,73.998Z M-20-20L-20,108L200,108L200-20Z"/>
    </clipPath>
    <symbol id="drop" >
      <path fill="#4990CD" stroke="#FFFFFF" stroke-width="2" stroke-miterlimit="10" d="M90.599,108.347c-2.736,5.944-8.836,8.983-13.626,6.779c-4.789-2.202-6.455-8.81-3.721-14.755 c2.735-5.946,19.675-19.939,19.675-19.939S93.332,102.397,90.599,108.347z"/>
    </symbol>
  </defs>
  <g id="luna" clip-path="url(#nuvOmbraLN2)">
  <path fill="url(#lunGradLN2)" stroke="#FEEF67" stroke-width="3" stroke-miterlimit="10" d="M108.283,93.729 c-15.568,5.667-32.785-2.359-38.451-17.928c-5.666-15.569,2.361-32.785,17.932-38.451c0.137-0.051,0.275-0.092,0.414-0.139 c-9.607-4.302-21.055-5.119-31.719-1.238c-21.768,7.923-32.994,31.995-25.071,53.763c7.923,21.769,31.995,32.989,53.762,25.066 c10.695-3.892,18.836-11.687,23.42-21.187C108.475,93.652,108.381,93.693,108.283,93.729z"/>
  </g>
  <g id="Nuvola" class="nuvMoLN2">
    <path fill="url(#nuvGradLN2)" d="M123.034,73.998c4.838,0.928,13.771,4.067,14.47,14.613c0.632,9.541-5.395,16.814-17.534,19.088c0,0-88.119,0-90.368,0c-2.71,0-8.139-3.278-8.139-10.237c0-13.165,14.885-11.579,14.885-11.579s-2.991-9.745,5.396-17.725c10.799-10.279,25.625-2.728,25.625-2.728s7.208-18.492,26.975-17.725c23.415,0.91,25.627,25.906,25.627,25.906S121.211,73.648,123.034,73.998"/>
    <path fill="none" stroke="#d3d1cf" stroke-width="6" stroke-miterlimit="10" d="M119.97,107.699C119.97,107.699,31.851,107.699,29.602,107.699c-2.71,0-8.139,-3.278-8.139,-10.237c0-13.165,14.885-11.579,14.885-11.579s-2.991-9.745,5.396-17.725c10.799-10.279,25.625-2.728,25.625-2.728s7.208-18.492,26.975-17.725c23.415,0.91,25.627,25.906,25.627,25.906s16.573,0.479,17.534,14.999C138.136,98.152,132.109,105.426,119.97,107.699z"/>
  </g>
  <g id="goccia1" class="nuvMoLN2">
    <g class="drop1AphLN2" > 
      <use xlink:href="#drop" class="drop1MoLN2" x="-20" y="0"/>
    </g>
  </g>
  <g id="goccia2" class="nuvMoLN2">
    <g class="drop2AphLN2" > 
      <use xlink:href="#drop" class="drop2MoLN2" x="10" y="-10"/>
    </g>
  </g>

  <style>
    .nuvMoLN2 {
      animation-name: nuvMovesLN2;
      animation-duration: 1320ms;
      animation-iteration-count: infinite;
    }
    @keyframes nuvMovesLN2 {
      0%   { transform: translate(-2px, 0); }
      52%  { transform: translate(5px, 0); }
      100% { transform: translate(-2px, 0); }
    }
    .drop1MoLN2 {
      animation-name: drop1MovesLN2;
      animation-duration: 1s;
      animation-iteration-count: infinite;
    }
    @keyframes drop1MovesLN2 {
      0%  { transform: translate(0px,0px); }
      30%  { transform: translate(-3.4px,9px); }
      80%  { transform: translate(2.5px,-6px); }
      100%  { transform: translate(0px,0px); }
    }
    .drop1AphLN2 {
      animation-name: drop1AlphaLN2;
      animation-duration: 1s;
      animation-iteration-count: infinite;
    }
    @keyframes drop1AlphaLN2 {
      0%   { opacity: 1; }
      28%  { opacity: 1; }
      30%  { opacity: 0; }
      80%  { opacity: 0; }
      82%  { opacity: 1; }
      100% { opacity: 1; }
    }
    .drop2MoLN2 {
      animation-name: drop2MovesLN2;
      animation-duration: 1s;
      animation-iteration-count: infinite;
    }
    @keyframes drop2MovesLN2 {
      0%  { transform: translate(0px,0px); }
      40%  { transform: translate(-6.5px,14.76px); }
      100%  { transform: translate(0px,0px); }
    }
    .drop2AphLN2 {
      animation-name: drop2AlphaLN2;
      animation-duration: 1s;
      animation-iteration-count: infinite;
    }
    @keyframes drop2AlphaLN2 {
      0%   { opacity: 1; }
      38%  { opacity: 1; }
      40%  { opacity: 0; }
      98%  { opacity: 0; }
      100% { opacity: 1; }
    }
  </style>
</svg>