<?xml version="1.0"?>
<svg xmlns="http://www.w3.org/2000/svg" version="1.1" xmlns:xlink="http://www.w3.org/1999/xlink" x="0" y="0" width="160px" height="160px" viewBox="0 0 160 160">
  <defs>
    <linearGradient id="solGradN2" x1="0" x2="1" y1="0.05" y2="0">
      <stop offset="0%" stop-color="#fbc224"/>
      <stop offset="14%" stop-color="#fbc224"/>
      <stop offset="42%" stop-color="#FA9C2E"/>
      <stop offset="58%" stop-color="#FA9C2E"/>
      <stop offset="86%" stop-color="#fbc224"/>
      <stop offset="100%" stop-color="#fbc224"/>
    </linearGradient>
    <linearGradient id="nuvGradN2" gradientUnits="userSpaceOnUse" x1="21.4624" y1="61.6909" x2="137.5488" y2="61.6909">
      <stop offset="0" style="stop-color:#FCFBF9;stop-opacity:1"/>
      <stop offset="1" style="stop-color:#FFFEFD;stop-opacity:0.6"/>
    </linearGradient>
    <clipPath id="solDiscoN2">
      <circle cx="81.3" cy="77.3" r="42.2"/>
    </clipPath>
    <clipPath id="nuvOmbraN2">
     <path class="nuvMoN2" d="M123.034,73.998c4.838,0.928,13.771,4.067,14.47,14.613c0.632,9.541-5.395,16.814-17.534,19.088c0,0-88.119,0-90.368,0c-2.71,0-8.139-3.278-8.139-10.237c0-13.165,14.885-11.579,14.885-11.579s-2.991-9.745,5.396-17.725c10.799-10.279,25.625-2.728,25.625-2.728s7.208-18.492,26.975-17.725c23.415,0.91,25.627,25.906,25.627,25.906S121.211,73.648,123.034,73.998Z M-20-20L-20,108L200,108L200-20Z"/>
    </clipPath>
    <symbol id="drop" >
      <path fill="#4990CD" stroke="#FFFFFF" stroke-width="2" stroke-miterlimit="10" d="M90.599,108.347c-2.736,5.944-8.836,8.983-13.626,6.779c-4.789-2.202-6.455-8.81-3.721-14.755 c2.735-5.946,19.675-19.939,19.675-19.939S93.332,102.397,90.599,108.347z"/>
    </symbol>
  </defs>

  <g id="Sole" clip-path="url(#nuvOmbraN2)">
    <g clip-path="url(#solDiscoN2)"> 
      <rect class="solDiscMoN2" x="10" y="35" width="640" height="85" fill="url(#solGradN2)" />
    </g>
    <g class="ghieraMoN2 ghieraN2" > 
      <path opacity="0.8" d="M127.406,77.329c0-25.481-20.662-46.14-46.139-46.14c-25.483,0-46.143,20.658-46.143,46.14c0,25.482,20.66,46.138,46.143,46.138C106.744,123.467,127.406,102.811,127.406,77.329z"/>
      <path opacity="0.3" d="M132.021,77.329c0-28.03-22.729-50.754-50.753-50.754c-28.031,0-50.757,22.724-50.757,50.754c0,28.029,22.726,50.751,50.757,50.751C109.292,128.08,132.021,105.357,132.021,77.329z"/>
      <path opacity="0.05" d="M137.097,77.329c0-30.834-25.002-55.829-55.829-55.829c-30.834,0-55.832,24.995-55.832,55.829c0,30.831,24.998,55.825,55.832,55.825C112.095,133.154,137.097,108.16,137.097,77.329z"/>
  </g>
  </g>

  <g id="Nuvola" class="nuvMoN2">
    <path fill="url(#nuvGradN2)" d="M123.034,73.998c4.838,0.928,13.771,4.067,14.47,14.613c0.632,9.541-5.395,16.814-17.534,19.088c0,0-88.119,0-90.368,0c-2.71,0-8.139-3.278-8.139-10.237c0-13.165,14.885-11.579,14.885-11.579s-2.991-9.745,5.396-17.725c10.799-10.279,25.625-2.728,25.625-2.728s7.208-18.492,26.975-17.725c23.415,0.91,25.627,25.906,25.627,25.906S121.211,73.648,123.034,73.998"/>
    <path fill="none" stroke="#d3d1cf" stroke-width="6" stroke-miterlimit="10" d="M119.97,107.699C119.97,107.699,31.851,107.699,29.602,107.699c-2.71,0-8.139,-3.278-8.139,-10.237c0-13.165,14.885-11.579,14.885-11.579s-2.991-9.745,5.396-17.725c10.799-10.279,25.625-2.728,25.625-2.728s7.208-18.492,26.975-17.725c23.415,0.91,25.627,25.906,25.627,25.906s16.573,0.479,17.534,14.999C138.136,98.152,132.109,105.426,119.97,107.699z"/>
  </g>

  <g id="goccia1" class="nuvMoN2">
    <g class="drop1AphN2" > 
      <use xlink:href="#drop" class="drop1MoN2" x="-20" y="0"/>
    </g>
  </g>
  <g id="goccia2" class="nuvMoN2">
    <g class="drop2AphN2" > 
      <use xlink:href="#drop" class="drop2MoN2" x="10" y="-10"/>
    </g>
  </g>

  <style>
    .solDiscMoN2 {
      animation-name: solDiscMovesN2;
      animation-duration: 4s;
      animation-iteration-count: infinite;
    }
    @keyframes solDiscMovesN2 {
      0%   { transform: translate(32px); }
      100% { transform: translate(-516.5px); }
    }
    .ghieraN2 {display: inline; fill: none; stroke: #ED6E30; stroke-width: 2.5; stroke-miterlimit: 10;}
    .ghieraMoN2 {
      animation-name: ghieraMovesN2;
      animation-duration: 1s;
      animation-iteration-count: infinite;
    }
    @keyframes ghieraMovesN2 {
      0%   { opacity: 0; }
      10%   { opacity: 0; }
      45%   { opacity: 1; }
      100% { opacity: 0; }
    }
    .nuvMoN2 {
      animation-name: nuvMovesN2;
      animation-duration: 1320ms;
      animation-iteration-count: infinite;
    }
    @keyframes nuvMovesN2 {
      0%   { transform: translate(-2px, 0); }
      52%  { transform: translate(5px, 0); }
      100% { transform: translate(-2px, 0); }
    }
    .drop1MoN2 {
      animation-name: drop1MovesN2;
      animation-duration: 1s;
      animation-iteration-count: infinite;
    }
    @keyframes drop1MovesN2 {
      0%  { transform: translate(0px,0px); }
      30%  { transform: translate(-3.4px,9px); }
      80%  { transform: translate(2.5px,-6px); }
      100%  { transform: translate(0px,0px); }
    }
    .drop1AphN2 {
      animation-name: drop1AlphaN2;
      animation-duration: 1s;
      animation-iteration-count: infinite;
    }
    @keyframes drop1AlphaN2 {
      0%   { opacity: 1; }
      28%  { opacity: 1; }
      30%  { opacity: 0; }
      80%  { opacity: 0; }
      82%  { opacity: 1; }
      100% { opacity: 1; }
    }
    .drop2MoN2 {
      animation-name: drop2MovesN2;
      animation-duration: 1s;
      animation-iteration-count: infinite;
    }
    @keyframes drop2MovesN2 {
      0%  { transform: translate(0px,0px); }
      40%  { transform: translate(-6.5px,14.76px); }
      100%  { transform: translate(0px,0px); }
    }
    .drop2AphN2 {
      animation-name: drop2AlphaN2;
      animation-duration: 1s;
      animation-iteration-count: infinite;
    }
    @keyframes drop2AlphaN2 {
      0%   { opacity: 1; }
      38%  { opacity: 1; }
      40%  { opacity: 0; }
      98%  { opacity: 0; }
      100% { opacity: 1; }
    }
  </style>
</svg>