<svg version="1.1" xmlns="http://www.w3.org/2000/svg" x="0" y="0" width="160px" height="160px" viewBox="0 0 160 160">
  <defs>
  <clipPath id="nuvOmbraLPN">
     <path class="nuvMoLPN" d="M82.25,105.199c-9.937,0-51.113,0-52.305,0 c-1.633,0-4.904-1.974-4.904-6.168c0-7.932,8.969-6.977,8.969-6.977s-1.803-5.871,3.25-10.68 c6.507-6.193,15.438-1.643,15.438-1.643s4.343-11.141,16.254-10.679c14.107,0.548,15.439,15.608,15.439,15.608 s9.986,0.289,10.565,9.037c0.381,5.747-3.25,10.131-10.565,11.5c0,0-0.712,0-1.975,0 M-20-20 L-20,200 L200,200 L200-20Z"/>
    </clipPath>
  </defs>
  <g id="luna" clip-path="url(#nuvOmbraLPN)">
  <linearGradient id="lunGradLPN" x1="0" y1="0.05" x2="1" y2="0">
  <stop  offset="0" style="stop-color:#FFF165"/>
  <stop  offset="1" style="stop-color:#FECB47"/>
  </linearGradient>
  <linearGradient id="nuvGradLPN" gradientUnits="userSpaceOnUse" x1="21.4624" y1="61.6909" x2="137.5488" y2="61.6909">
      <stop offset="0" style="stop-color:#FCFBF9;stop-opacity:1"/>
      <stop offset="1" style="stop-color:#FFFEFD;stop-opacity:0.6"/>
    </linearGradient>
  <path fill="url(#lunGradLPN)" stroke="#FEEF67" stroke-width="3" stroke-miterlimit="10" d="M126.283,93.729 c-15.568,5.667-32.785-2.359-38.451-17.928c-5.666-15.569,2.361-32.785,17.932-38.451c0.137-0.051,0.275-0.092,0.414-0.139 c-9.607-4.302-21.055-5.119-31.718-1.238c-21.769,7.923-32.994,31.995-25.071,53.763c7.923,21.769,31.995,32.989,53.762,25.066 c10.695-3.892,18.836-11.687,23.42-21.187C126.475,93.652,126.381,93.693,126.283,93.729z"/>
  </g>
  <g id="Nuvola" class="nuvMoLPN">
    <path fill="url(#nuvGradLPN)" d="M82.25,105.199c-9.937,0-51.113,0-52.305,0 c-1.633,0-4.904-1.974-4.904-6.168c0-7.932,8.969-6.977,8.969-6.977s-1.803-5.871,3.25-10.68 c6.507-6.193,15.438-1.643,15.438-1.643s4.343-11.141,16.254-10.679c14.107,0.548,15.439,15.608,15.439,15.608 s9.986,0.289,10.565,9.037c0.381,5.747-3.25,10.131-10.565,11.5c0,0-0.712,0-1.975,0"/>
    <path fill="none" stroke="#d3d1cf" stroke-width="3" stroke-miterlimit="10" d="M82.25,105.199c-9.937,0-51.113,0-52.305,0 c-1.633,0-4.904-1.974-4.904-6.168c0-7.932,8.969-6.977,8.969-6.977s-1.803-5.871,3.25-10.68 c6.507-6.193,15.438-1.643,15.438-1.643s4.343-11.141,16.254-10.679c14.107,0.548,15.439,15.608,15.439,15.608 s9.986,0.289,10.565,9.037c0.381,5.747-3.25,10.131-10.565,11.5c0,0-0.712,0-1.975,0"/>
  </g>
  <style>
    .nuvMoLPN {
      animation-name: nuvMovesLPN;
      animation-duration: 1320ms;
      animation-iteration-count: infinite;
    }
    @keyframes nuvMovesLPN {
      0%   { transform: translate(-2px, 0) ; }
      52%  { transform: translate(5px, 0) ; }
      100% { transform: translate(-2px, 0) ; }
    }
  </style>
</svg>