<?xml version="1.0"?>
<svg xmlns="http://www.w3.org/2000/svg" version="1.1" xmlns:xlink="http://www.w3.org/1999/xlink" x="0" y="0" width="160px" height="160px" viewBox="0 0 160 160">
  <defs>
    <linearGradient id="nuvGrad0T" x1="0" y1="0" x2="1" y2="0">
      <stop offset="0" style="stop-color:#505050;stop-opacity:1"/>
      <stop offset="1" style="stop-color:#CCCCCC;stop-opacity:0.6"/>
    </linearGradient>
    <linearGradient id="nuvGrad1T" x1="21.4624" y1="61.6909" x2="137.5488" y2="61.6909">
      <stop offset="0" style="stop-color:#FCFBF9;stop-opacity:1"/>
      <stop offset="1" style="stop-color:#FFFEFD;stop-opacity:0.6"/>
    </linearGradient>
    <clipPath id="nuvOmbraT">
     <path class="nuvMoT" d="M123.034,73.998c4.838,0.928,13.771,4.067,14.47,14.613c0.632,9.541-5.395,16.814-17.534,19.088c0,0-88.119,0-90.368,0c-2.71,0-8.139-3.278-8.139-10.237c0-13.165,14.885-11.579,14.885-11.579s-2.991-9.745,5.396-17.725c10.799-10.279,25.625-2.728,25.625-2.728s7.208-18.492,26.975-17.725c23.415,0.91,25.627,25.906,25.627,25.906S121.211,73.648,123.034,73.998Z M-20-20L-20,108L200,108L200-20Z"/>
    </clipPath>
    <symbol id="cloud">
     <path d="M123.034,73.998c4.838,0.928,13.771,4.067,14.47,14.613c0.632,9.541-5.395,16.814-17.534,19.088c0,0-88.119,0-90.368,0c-2.71,0-8.139-3.278-8.139-10.237c0-13.165,14.885-11.579,14.885-11.579s-2.991-9.745,5.396-17.725c10.799-10.279,25.625-2.728,25.625-2.728s7.208-18.492,26.975-17.725c23.415,0.91,25.627,25.906,25.627,25.906S121.211,73.648,123.034,73.998" />
    </symbol>
  </defs>
  <g id="Nuvola" class="nuvMoT">
    <use xlink:href="#cloud" fill="url(#nuvGrad0T)" class="nuvAh0T"/>
    <use xlink:href="#cloud" fill="url(#nuvGrad1T)" class="nuvAh1T"/>
    <path fill="none" stroke="#d3d1cf" stroke-width="6" stroke-miterlimit="10" d="M119.97,107.699C119.97,107.699,31.851,107.699,29.602,107.699c-2.71,0-8.139,-3.278-8.139,-10.237c0-13.165,14.885-11.579,14.885-11.579s-2.991-9.745,5.396-17.725c10.799-10.279,25.625-2.728,25.625-2.728s7.208-18.492,26.975-17.725c23.415,0.91,25.627,25.906,25.627,25.906s16.573,0.479,17.534,14.999C138.136,98.152,132.109,105.426,119.97,107.699z"/>
  </g>

  <g id="Fulmine" class="fulAhT" >
   <polygon class="nuvMoT" fill="#F9C21B" stroke="#FFFFFF" stroke-width="2" stroke-miterlimit="10" points="94,74 64,107.666 79,112.332 66.667,138.332 101.334,103 87,94.333" />
  </g>

  <style>
    
    .nuvAh0T {
      animation-name: nuvAlpha0T;
      animation-duration: 1320ms;
      animation-iteration-count: infinite;
    }
    @keyframes nuvAlpha0T {
      0%   { opacity: 1; }
      5%   { opacity: 0; }
      20%, 50% { opacity: 1; }
      54%  { opacity: 0; }
      60%  { opacity: 1; }
      62%  { opacity: 0; }
      84%  { opacity: 1; }
      87%  { opacity: 0; }
      100% { opacity: 1; }
    }
    .nuvAh1T {
      animation-name: nuvAlpha1T;
      animation-duration: 1320ms;
      animation-iteration-count: infinite;
    }
    @keyframes nuvAlpha1T {
      0%   { opacity: 0; }
      5%   { opacity: 1; }
      20%, 50% { opacity: 0; }
      54%  { opacity: 1; }
      60%  { opacity: 0; }
      62%  { opacity: 1; }
      84%  { opacity: 0; }
      87%  { opacity: 1; }
      100% { opacity: 0; }
    }
    .nuvMoT {
      animation-name: nuvMovesT;
      animation-duration: 1320ms;
      animation-iteration-count: infinite;
    }
    @keyframes nuvMovesT {
      0%   { transform: translate(-2px, 0); }
      52%  { transform: translate(5px, 0); }
      100% { transform: translate(-2px, 0); }
    }
    .fulAhT {
      animation-name: fulAlphaT;
      animation-duration: 1320ms;
      animation-iteration-count: infinite;
    }
    @keyframes fulAlphaT {
      0%   { opacity: 1; }
      3%   { opacity: 0; }
      18%  { opacity: 1; }
      48%  { opacity: 1; }
      52%  { opacity: 0; }
      58%  { opacity: 1; }
      60%  { opacity: 0; }
      82%  { opacity: 1; }
      85%  { opacity: 0; }
      100% { opacity: 1; }
    }
  </style>
</svg>