<?xml version="1.0"?>
<svg xmlns="http://www.w3.org/2000/svg" version="1.1" xmlns:xlink="http://www.w3.org/1999/xlink" x="0" y="0" width="160px" height="160px" viewBox="0 0 160 160">
    <clipPath id="ondeRett">
      <rect x="52" y="0" width="90" height="200"/>
    </clipPath>
     <g clip-path="url(#ondeRett)"> 	
     <g id="onde"  class="ondeMoM01">
		<path fill-rule="evenodd" clip-rule="evenodd" fill="#4AB1E5" d="M218.229,77.527c-8.956,6.843-15.718,6.584-24.338,0
			c-8.396-6.411-16.565-6.713-25.352,0c-9.268,7.076-15.382,6.325-23.665,0l-0.005,0.006c-8.728-6.633-14.465-6.608-23.222,0.078
			c-8.956,6.843-15.718,6.584-24.338,0c-8.396-6.411-16.565-6.713-25.352,0c-9.268,7.075-15.382,6.325-23.665,0
			c-8.786-6.713-15.887-6.455-24.338,0l2.868,6.895c6.956-5.311,11.65-5.311,18.601,0c10.442,7.974,18.958,7.974,29.401,0
			c6.873-5.253,12.741-5.253,19.615,0c10.542,8.051,19.535,8.051,30.075,0c7.037-5.376,10.492-5.399,17.496-0.07l0.004-0.006
			c10.438,7.965,18.951,7.963,29.391-0.008c6.873-5.253,12.741-5.253,19.615,0c10.542,8.051,19.535,8.051,30.075,0
			c7.068-5.399,10.523-5.399,17.587,0l2.87-6.895C232.767,70.814,227.021,70.814,218.229,77.527z"/>
     </g>
     </g>
 <style>
    .ondeMoM01 {
      animation-name: ondeMovesM01;
      animation-duration: 4s;
      animation-iteration-count:infinite;
      animation-timing-function: linear;
    }
    @keyframes ondeMovesM01 {
      0%   { transform: translate(0px); }
      100% { transform: translate(-96px); }
    }
</style>
</svg>
