<?xml version="1.0" encoding="UTF-8" standalone="no"?>
<svg
   width="40px"
   height="40px"
   viewBox="0 0 40 40"
   version="1.1"
   id="svg2"
   sodipodi:docname="ic_snow_mid_40px (1).svg"
   inkscape:version="1.3 (0e150ed, 2023-07-21)"
   xmlns:inkscape="http://www.inkscape.org/namespaces/inkscape"
   xmlns:sodipodi="http://sodipodi.sourceforge.net/DTD/sodipodi-0.dtd"
   xmlns:xlink="http://www.w3.org/1999/xlink"
   xmlns="http://www.w3.org/2000/svg"
   xmlns:svg="http://www.w3.org/2000/svg">
  <sodipodi:namedview
     id="namedview2"
     pagecolor="#ffffff"
     bordercolor="#000000"
     borderopacity="0.25"
     inkscape:showpageshadow="2"
     inkscape:pageopacity="0.0"
     inkscape:pagecheckerboard="0"
     inkscape:deskcolor="#d1d1d1"
     inkscape:zoom="21.9"
     inkscape:cx="20"
     inkscape:cy="20.022831"
     inkscape:window-width="1440"
     inkscape:window-height="1034"
     inkscape:window-x="0"
     inkscape:window-y="0"
     inkscape:window-maximized="0"
     inkscape:current-layer="svg2" />
  <title
     id="title1">ic_snow_mid_40px</title>
  <defs
     id="defs2">
    <linearGradient
       x1="92.6035503%"
       y1="75.7294004%"
       x2="7.3964497%"
       y2="24.2389356%"
       id="linearGradient-1">
      <stop
         stop-color="#C2E9FB"
         offset="0%"
         id="stop1" />
      <stop
         stop-color="#1F5EC3"
         offset="100%"
         id="stop2" />
    </linearGradient>
    <linearGradient
       x1="34.464504"
       y1="18.105518"
       x2="23.822142"
       y2="11.674363"
       id="linearGradient-1-9"
       xlink:href="#linearGradient185"
       gradientTransform="matrix(0.96076896,0,0,1.040833,-0.00913282,-0.02283115)"
       gradientUnits="userSpaceOnUse">
      <stop
         stop-color="#C2E9FB"
         offset="0"
         id="stop1-3"
         style="stop-color:#00d2ff;stop-opacity:1;" />
      <stop
         stop-color="#1F5EC3"
         offset="1"
         id="stop2-8"
         style="stop-color:#34377b;stop-opacity:1;" />
    </linearGradient>
    <linearGradient
       x1="0.92603552"
       y1="0.757294"
       x2="0.073964499"
       y2="0.24238935"
       id="linearGradient185"
       gradientUnits="objectBoundingBox"
       spreadMethod="pad">
      <stop
         stop-color="#C2E9FB"
         offset="0%"
         id="stop184" />
      <stop
         stop-color="#1F5EC3"
         offset="1"
         id="stop185"
         style="stop-color:#546f9b;stop-opacity:1;" />
    </linearGradient>
    <linearGradient
       x1="34.464504"
       y1="18.105518"
       x2="23.822142"
       y2="11.674363"
       id="linearGradient-1-9-9"
       xlink:href="#linearGradient185"
       gradientTransform="matrix(0.96076896,0,0,1.040833,-15.990868,9.9771688)"
       gradientUnits="userSpaceOnUse">
      <stop
         stop-color="#C2E9FB"
         offset="0"
         id="stop1-3-3"
         style="stop-color:#00d2ff;stop-opacity:1;" />
      <stop
         stop-color="#1F5EC3"
         offset="1"
         id="stop2-8-8"
         style="stop-color:#34377b;stop-opacity:1;" />
    </linearGradient>
  </defs>
  <g
     id="ic_snow_mid_40px"
     stroke="none"
     stroke-width="1"
     fill="none"
     fill-rule="evenodd"
     style="display:inline">
    <rect
       id="Rectangle"
       x="0"
       y="0"
       width="40"
       height="40"
       style="display:inline" />
    <path
       d="m 17.296644,25.880235 -2.391774,0.633229 -0.92194,-0.525745 v -0.986607 l 0.911408,-0.517383 2.402249,0.636317 c 0.04829,0.01274 0.0968,0.01903 0.144894,0.01903 0.246752,0 0.472552,-0.16291 0.539236,-0.409674 0.07991,-0.294893 -0.09695,-0.597953 -0.395222,-0.676868 l -1.316963,-0.348832 1.214055,-0.689048 c 0.267589,-0.151936 0.360192,-0.489683 0.206469,-0.754324 -0.154234,-0.26464 -0.495206,-0.356324 -0.762908,-0.204023 l -1.216554,0.690676 0.352782,-1.302352 c 0.07983,-0.294809 -0.09678,-0.597925 -0.395194,-0.67684 -0.296431,-0.07687 -0.604246,0.09603 -0.684187,0.390647 l -0.641009,2.364534 -0.917113,0.520666 -0.869393,-0.496924 v -1.042679 l 1.758118,-1.737984 c 0.218249,-0.215866 0.218249,-0.565511 0,-0.781405 -0.218306,-0.215838 -0.571912,-0.215838 -0.790388,0 l -0.96773,0.956635 v -1.38876 C 12.555508,19.247409 12.30518,19 11.996514,19 c -0.30861,0 -0.55891,0.247381 -0.55891,0.552518 v 1.381912 l -0.96069,-0.949787 c -0.218334,-0.215838 -0.5720245,-0.215838 -0.7904159,0 -0.2183347,0.215866 -0.2183347,0.565511 0,0.781405 l 1.7511059,1.731053 v 1.053623 L 10.574797,24.042793 9.6576839,23.522604 9.0171295,21.158463 c -0.0798,-0.294613 -0.3861665,-0.46799 -0.6841588,-0.390647 -0.2982478,0.07891 -0.4752491,0.382031 -0.3953359,0.67684 l 0.3527534,1.302127 -1.2164969,-0.690479 c -0.2681846,-0.152329 -0.6095543,-0.06084 -0.7630216,0.204164 -0.1536093,0.264696 -0.060978,0.602218 0.2066954,0.754155 l 1.213942,0.689048 -1.3169916,0.348832 c -0.2982762,0.07891 -0.4752207,0.381975 -0.3953359,0.676868 0.066854,0.246764 0.2925985,0.409674 0.5393783,0.409674 0.048061,0 0.096605,-0.0063 0.145036,-0.01903 l 2.4025615,-0.636541 0.9103856,0.516709 9.37e-4,0.987505 -0.9222238,0.526699 -2.3916603,-0.634183 c -0.2961755,-0.07684 -0.604416,0.09626 -0.6844143,0.390759 -0.079885,0.294781 0.09706,0.597925 0.3953359,0.676419 l 1.3121656,0.347905 -1.210507,0.690816 c -0.2672194,0.152695 -0.3589137,0.490329 -0.2043676,0.754521 0.1035322,0.177811 0.2913495,0.276259 0.484305,0.276259 0.094732,0 0.1908831,-0.02329 0.2789721,-0.07426 L 8.2917225,28.248558 7.9376348,29.55568 c -0.079913,0.295287 0.097088,0.597477 0.3953359,0.676869 0.048289,0.01294 0.096804,0.01906 0.1448941,0.01906 0.2466662,0 0.4724102,-0.163162 0.5392647,-0.410095 l 0.6437339,-2.374328 0.9155806,-0.522238 0.86116,0.491227 v 1.067122 l -1.7511059,1.731109 c -0.2183347,0.21581 -0.2183347,0.565399 0,0.781349 0.1091815,0.107933 0.2519464,0.161423 0.3951939,0.161423 0.142765,0 0.286041,-0.05349 0.395222,-0.161423 l 0.96069,-0.949731 v 1.381435 c 0,0.30567 0.2503,0.552546 0.55891,0.552546 0.308666,0 0.558994,-0.246932 0.558994,-0.552546 V 30.05912 l 0.96773,0.956635 c 0.109153,0.107933 0.251918,0.161423 0.395194,0.161423 0.143276,0 0.286041,-0.05349 0.395194,-0.161423 0.21825,-0.215894 0.21825,-0.565483 0,-0.781349 l -1.758118,-1.738013 v -1.055952 l 0.868541,-0.495549 0.915325,0.522237 0.643734,2.374329 c 0.06677,0.246932 0.292514,0.410095 0.539152,0.410095 0.04792,0 0.09658,-0.0061 0.144979,-0.01905 0.298418,-0.07939 0.474993,-0.381582 0.395194,-0.676869 l -0.354485,-1.307122 1.217093,0.694071 c 0.08812,0.05091 0.18424,0.07426 0.279,0.07426 0.192956,0 0.380716,-0.09845 0.484277,-0.276259 0.154517,-0.264192 0.06288,-0.60177 -0.204368,-0.754521 L 16.273443,27.29536 17.58558,26.947426 c 0.298277,-0.07849 0.475136,-0.381666 0.395223,-0.676391 -0.07943,-0.294557 -0.386394,-0.468018 -0.684159,-0.390787 z m -4.431589,0.107484 -0.86505,0.493893 -0.864424,-0.493921 -9.66e-4,-0.988375 0.86539,-0.493557 0.86505,0.494286 z"
       id="Shape"
       fill="url(#linearGradient-1)"
       fill-rule="nonzero"
       style="display:none" />
    <path
       d="m 33.296644,15.880235 -2.391774,0.633229 -0.92194,-0.525745 v -0.986607 l 0.911408,-0.517382 2.402249,0.636316 c 0.04829,0.01274 0.0968,0.01903 0.144894,0.01903 0.246751,0 0.472552,-0.16291 0.539236,-0.409674 0.07991,-0.294893 -0.09695,-0.597953 -0.395222,-0.676868 l -1.316963,-0.348832 1.214055,-0.689048 c 0.267589,-0.151936 0.360192,-0.489683 0.206469,-0.754324 -0.154234,-0.26464 -0.495206,-0.356324 -0.762908,-0.204023 l -1.216554,0.690676 0.352782,-1.302352 c 0.07983,-0.294809 -0.09678,-0.597925 -0.395194,-0.67684 -0.296431,-0.07687 -0.604246,0.09603 -0.684187,0.390647 l -0.641009,2.364534 -0.917113,0.520666 -0.869393,-0.496924 v -1.042679 l 1.758118,-1.737984 c 0.218249,-0.215866 0.218249,-0.565511 0,-0.7814053 -0.218307,-0.2158379 -0.571912,-0.2158379 -0.790388,0 L 28.55548,10.941278 V 9.552518 C 28.555508,9.2474095 28.30518,9 27.996514,9 c -0.30861,0 -0.55891,0.2473814 -0.55891,0.552518 v 1.381912 l -0.96069,-0.9497873 c -0.218334,-0.2158379 -0.572025,-0.2158379 -0.790416,0 -0.218335,0.2158663 -0.218335,0.5655113 0,0.7814053 l 1.751106,1.731053 v 1.053623 l -0.862807,0.492069 -0.917113,-0.520189 -0.640555,-2.364141 c -0.0798,-0.294613 -0.386166,-0.46799 -0.684158,-0.390647 -0.298248,0.07892 -0.475249,0.382031 -0.395336,0.67684 l 0.352753,1.302127 -1.216497,-0.690479 c -0.268184,-0.152329 -0.609554,-0.06084 -0.763021,0.204164 -0.15361,0.264697 -0.06098,0.602219 0.206695,0.754155 l 1.213942,0.689048 -1.316992,0.348832 c -0.298276,0.07892 -0.47522,0.381975 -0.395335,0.676868 0.06685,0.246764 0.292598,0.409674 0.539378,0.409674 0.04806,0 0.09661,-0.0063 0.145036,-0.01903 l 2.402561,-0.636541 0.910386,0.516709 9.37e-4,0.987505 -0.922224,0.526699 -2.39166,-0.634183 c -0.296176,-0.07684 -0.604416,0.09626 -0.684414,0.390759 -0.07988,0.294781 0.09706,0.597925 0.395335,0.676419 l 1.312166,0.347905 -1.210507,0.690816 c -0.267219,0.152695 -0.358914,0.490329 -0.204368,0.754521 0.103533,0.177811 0.29135,0.276259 0.484305,0.276259 0.09473,0 0.190884,-0.02329 0.278973,-0.07426 l 1.216638,-0.694071 -0.354087,1.307122 c -0.07991,0.295287 0.09709,0.597477 0.395336,0.676869 0.04829,0.01294 0.0968,0.01906 0.144894,0.01906 0.246666,0 0.47241,-0.163162 0.539264,-0.410095 l 0.643734,-2.374328 0.915581,-0.522238 0.86116,0.491227 v 1.067122 L 25.686498,20.2344 c -0.218335,0.21581 -0.218335,0.565399 0,0.781349 0.109182,0.107933 0.251946,0.161423 0.395194,0.161423 0.142765,0 0.286041,-0.05349 0.395222,-0.161423 l 0.96069,-0.949731 v 1.381435 c 0,0.30567 0.2503,0.552546 0.55891,0.552546 0.308666,0 0.558994,-0.246932 0.558994,-0.552546 v -1.388339 l 0.96773,0.956635 c 0.109153,0.107933 0.251918,0.161423 0.395194,0.161423 0.143276,0 0.286041,-0.05349 0.395194,-0.161423 0.21825,-0.215894 0.21825,-0.565483 0,-0.781349 l -1.758118,-1.738013 v -1.055952 l 0.868541,-0.495549 0.915325,0.522237 0.643734,2.374329 c 0.06677,0.246932 0.292514,0.410095 0.539151,0.410095 0.04792,0 0.09658,-0.0061 0.14498,-0.01905 0.298418,-0.07939 0.474993,-0.381582 0.395194,-0.676869 l -0.354486,-1.307122 1.217094,0.694071 c 0.08812,0.05091 0.18424,0.07426 0.279,0.07426 0.192956,0 0.380716,-0.09845 0.484277,-0.276259 0.154517,-0.264192 0.06288,-0.60177 -0.204368,-0.754521 L 32.273443,17.295354 33.58558,16.94742 c 0.298277,-0.07849 0.475136,-0.381666 0.395223,-0.676391 -0.07943,-0.294557 -0.386394,-0.468018 -0.684159,-0.390787 z m -4.431589,0.107484 -0.86505,0.493893 -0.864424,-0.493921 -9.66e-4,-0.988375 0.86539,-0.493556 0.86505,0.494285 z"
       id="path2"
       fill="url(#linearGradient-1)"
       fill-rule="nonzero"
       style="display:none" />
  </g>
  <path
     d="m 33.287512,15.857404 -2.391774,0.633229 -0.92194,-0.525745 v -0.986607 l 0.911408,-0.517382 2.402249,0.636316 c 0.04829,0.01274 0.0968,0.01903 0.144894,0.01903 0.246751,0 0.472552,-0.16291 0.539236,-0.409674 0.07991,-0.294893 -0.09695,-0.597953 -0.395222,-0.676868 L 32.2594,13.680871 33.473455,12.991823 c 0.267589,-0.151936 0.360192,-0.489683 0.206469,-0.754324 -0.154234,-0.26464 -0.495206,-0.356324 -0.762908,-0.204023 l -1.216554,0.690676 0.352782,-1.302352 c 0.07983,-0.294809 -0.09678,-0.597925 -0.395194,-0.67684 -0.296431,-0.07687 -0.604246,0.09603 -0.684187,0.390647 l -0.641009,2.364534 -0.917113,0.520666 -0.869393,-0.496924 v -1.042679 l 1.758118,-1.737984 c 0.218249,-0.215866 0.218249,-0.565511 0,-0.7814054 -0.218307,-0.2158376 -0.571912,-0.2158376 -0.790388,0 l -0.96773,0.9566324 v -1.38876 c 2.8e-5,-0.305108 -0.2503,-0.552518 -0.558966,-0.552518 -0.30861,0 -0.55891,0.247381 -0.55891,0.552518 v 1.381912 l -0.96069,-0.9497874 c -0.218334,-0.2158376 -0.572025,-0.2158376 -0.790416,0 -0.218335,0.2158664 -0.218335,0.5655114 0,0.7814054 l 1.751106,1.731053 v 1.053623 l -0.862807,0.492069 -0.917113,-0.520189 -0.640555,-2.364141 c -0.0798,-0.294613 -0.386166,-0.46799 -0.684158,-0.390647 -0.298248,0.07892 -0.475249,0.382031 -0.395336,0.67684 l 0.352753,1.302127 -1.216497,-0.690479 c -0.268184,-0.152329 -0.609554,-0.06084 -0.763021,0.204164 -0.15361,0.264697 -0.06098,0.602219 0.206695,0.754155 l 1.213942,0.689048 -1.316992,0.348832 c -0.298276,0.07892 -0.47522,0.381975 -0.395335,0.676868 0.06685,0.246764 0.292598,0.409674 0.539378,0.409674 0.04806,0 0.09661,-0.0063 0.145036,-0.01903 l 2.402561,-0.636541 0.910386,0.516709 9.37e-4,0.987505 -0.922224,0.526699 -2.39166,-0.634183 c -0.296176,-0.07684 -0.604416,0.09626 -0.684414,0.390759 -0.07988,0.294781 0.09706,0.597925 0.395335,0.676419 l 1.312166,0.347905 -1.210507,0.690816 c -0.267219,0.152695 -0.358914,0.490329 -0.204368,0.754521 0.103533,0.177811 0.29135,0.276259 0.484305,0.276259 0.09473,0 0.190884,-0.02329 0.278973,-0.07426 l 1.216638,-0.694071 -0.354087,1.307122 c -0.07991,0.295287 0.09709,0.597477 0.395336,0.676869 0.04829,0.01294 0.0968,0.01906 0.144894,0.01906 0.246666,0 0.47241,-0.163162 0.539264,-0.410095 l 0.643734,-2.374328 0.915581,-0.522238 0.86116,0.491227 v 1.067122 l -1.751106,1.731109 c -0.218335,0.21581 -0.218335,0.565399 0,0.781349 0.109182,0.107933 0.251946,0.161423 0.395194,0.161423 0.142765,0 0.286041,-0.05349 0.395222,-0.161423 l 0.96069,-0.949731 v 1.381435 c 0,0.30567 0.2503,0.552546 0.55891,0.552546 0.308666,0 0.558994,-0.246932 0.558994,-0.552546 v -1.388339 l 0.96773,0.956635 c 0.109153,0.107933 0.251918,0.161423 0.395194,0.161423 0.143276,0 0.286041,-0.05349 0.395194,-0.161423 0.21825,-0.215894 0.21825,-0.565483 0,-0.781349 l -1.758118,-1.738013 v -1.055952 l 0.868541,-0.495549 0.915325,0.522237 0.643734,2.374329 c 0.06677,0.246932 0.292514,0.410095 0.539151,0.410095 0.04792,0 0.09658,-0.0061 0.14498,-0.01905 0.298418,-0.07939 0.474993,-0.381582 0.395194,-0.676869 l -0.354486,-1.307122 1.217094,0.694071 c 0.08812,0.05091 0.18424,0.07426 0.279,0.07426 0.192956,0 0.380716,-0.09845 0.484277,-0.276259 0.154517,-0.264192 0.06288,-0.60177 -0.204368,-0.754521 l -1.210507,-0.690703 1.312137,-0.347934 c 0.298277,-0.07849 0.475136,-0.381666 0.395223,-0.676391 -0.07943,-0.294557 -0.386394,-0.468018 -0.684159,-0.390787 z m -4.431589,0.107484 -0.86505,0.493893 -0.864424,-0.493921 -9.66e-4,-0.988375 0.86539,-0.493556 0.86505,0.494285 z"
     id="path2-4"
     fill="url(#linearGradient-1)"
     fill-rule="nonzero"
     style="display:inline;fill:url(#linearGradient-1-9)" />
  <path
     d="m 17.305776,25.857404 -2.391774,0.633229 -0.92194,-0.525745 v -0.986607 l 0.911408,-0.517382 2.402249,0.636316 c 0.04829,0.01274 0.0968,0.01903 0.144894,0.01903 0.246751,0 0.472552,-0.16291 0.539236,-0.409674 0.07991,-0.294893 -0.09695,-0.597953 -0.395222,-0.676868 l -1.316963,-0.348832 1.214055,-0.689048 c 0.267589,-0.151936 0.360192,-0.489683 0.206469,-0.754324 -0.154234,-0.26464 -0.495206,-0.356324 -0.762908,-0.204023 l -1.216554,0.690676 0.352782,-1.302352 c 0.07983,-0.294809 -0.09678,-0.597925 -0.395194,-0.67684 -0.296431,-0.07687 -0.604246,0.09603 -0.684187,0.390647 l -0.641009,2.364534 -0.917113,0.520666 -0.869393,-0.496924 V 22.481204 L 14.32273,20.74322 c 0.218249,-0.215866 0.218249,-0.565511 0,-0.781405 -0.218307,-0.215838 -0.571912,-0.215838 -0.790388,0 l -0.96773,0.956632 v -1.38876 c 2.8e-5,-0.305108 -0.2503,-0.552518 -0.558966,-0.552518 -0.30861,0 -0.55891,0.247381 -0.55891,0.552518 v 1.381912 l -0.96069,-0.949787 c -0.218334,-0.215838 -0.5720246,-0.215838 -0.7904156,0 -0.218335,0.215866 -0.218335,0.565511 0,0.781405 l 1.7511056,1.731053 v 1.053623 l -0.862807,0.492069 -0.9171126,-0.520189 -0.640555,-2.364141 c -0.0798,-0.294613 -0.386166,-0.46799 -0.684158,-0.390647 -0.298248,0.07892 -0.475249,0.382031 -0.395336,0.67684 l 0.352753,1.302127 -1.216497,-0.690479 c -0.268184,-0.152329 -0.609554,-0.06084 -0.763021,0.204164 -0.15361,0.264697 -0.06098,0.602219 0.206695,0.754155 l 1.213942,0.689048 -1.316992,0.348832 c -0.298276,0.07892 -0.47522,0.381975 -0.395335,0.676868 0.06685,0.246764 0.292598,0.409674 0.539378,0.409674 0.04806,0 0.09661,-0.0063 0.145036,-0.01903 l 2.402561,-0.636541 0.9103856,0.516709 9.37e-4,0.987505 -0.9222236,0.526699 -2.39166,-0.634183 c -0.296176,-0.07684 -0.604416,0.09626 -0.684414,0.390759 -0.07988,0.294781 0.09706,0.597925 0.395335,0.676419 l 1.312166,0.347905 -1.210507,0.690816 c -0.267219,0.152695 -0.358914,0.490329 -0.204368,0.754521 0.103533,0.177811 0.29135,0.276259 0.484305,0.276259 0.09473,0 0.190884,-0.02329 0.278973,-0.07426 l 1.216638,-0.694071 -0.354087,1.307122 c -0.07991,0.295287 0.09709,0.597477 0.395336,0.676869 0.04829,0.01294 0.0968,0.01906 0.144894,0.01906 0.246666,0 0.47241,-0.163162 0.539264,-0.410095 l 0.643734,-2.374328 0.9155806,-0.522238 0.86116,0.491227 v 1.067122 l -1.7511056,1.731109 c -0.218335,0.21581 -0.218335,0.565399 0,0.781349 0.109182,0.107933 0.251946,0.161423 0.3951936,0.161423 0.142765,0 0.286041,-0.05349 0.395222,-0.161423 l 0.96069,-0.949731 v 1.381435 c 0,0.30567 0.2503,0.552546 0.55891,0.552546 0.308666,0 0.558994,-0.246932 0.558994,-0.552546 v -1.388339 l 0.96773,0.956635 c 0.109153,0.107933 0.251918,0.161423 0.395194,0.161423 0.143276,0 0.286041,-0.05349 0.395194,-0.161423 0.21825,-0.215894 0.21825,-0.565483 0,-0.781349 L 12.56464,28.473556 v -1.055952 l 0.868541,-0.495549 0.915325,0.522237 0.643734,2.374329 c 0.06677,0.246932 0.292514,0.410095 0.539151,0.410095 0.04792,0 0.09658,-0.0061 0.14498,-0.01905 0.298418,-0.07939 0.474993,-0.381582 0.395194,-0.676869 l -0.354486,-1.307122 1.217094,0.694071 c 0.08812,0.05091 0.18424,0.07426 0.279,0.07426 0.192956,0 0.380716,-0.09845 0.484277,-0.276259 0.154517,-0.264192 0.06288,-0.60177 -0.204368,-0.754521 l -1.210507,-0.690703 1.312137,-0.347934 c 0.298277,-0.07849 0.475136,-0.381666 0.395223,-0.676391 -0.07943,-0.294557 -0.386394,-0.468018 -0.684159,-0.390787 z m -4.431589,0.107484 -0.86505,0.493893 -0.864424,-0.493921 -9.66e-4,-0.988375 0.86539,-0.493556 0.86505,0.494285 z"
     id="path2-4-4"
     fill="url(#linearGradient-1)"
     fill-rule="nonzero"
     style="display:inline;fill:url(#linearGradient-1-9-9)" />
</svg>
