<?xml version="1.0" encoding="UTF-8" standalone="no"?>
<svg
   width="40px"
   height="40px"
   viewBox="0 0 40 40"
   version="1.1"
   id="svg2"
   sodipodi:docname="ic_snow_mid_40px (4).svg"
   inkscape:version="1.3 (0e150ed, 2023-07-21)"
   xmlns:inkscape="http://www.inkscape.org/namespaces/inkscape"
   xmlns:sodipodi="http://sodipodi.sourceforge.net/DTD/sodipodi-0.dtd"
   xmlns="http://www.w3.org/2000/svg"
   xmlns:svg="http://www.w3.org/2000/svg">
  <sodipodi:namedview
     id="namedview2"
     pagecolor="#ffffff"
     bordercolor="#000000"
     borderopacity="0.25"
     inkscape:showpageshadow="2"
     inkscape:pageopacity="0.0"
     inkscape:pagecheckerboard="0"
     inkscape:deskcolor="#d1d1d1"
     inkscape:zoom="22.275"
     inkscape:cx="20"
     inkscape:cy="20"
     inkscape:window-width="1440"
     inkscape:window-height="1034"
     inkscape:window-x="0"
     inkscape:window-y="0"
     inkscape:window-maximized="0"
     inkscape:current-layer="ic_snow_mid_40px" />
  <title
     id="title1">ic_snow_mid_40px</title>
  <defs
     id="defs2">
    <linearGradient
       x1="34.464506"
       y1="18.105519"
       x2="23.822142"
       y2="11.674362"
       id="linearGradient-1"
       gradientTransform="matrix(0.96076892,0,0,1.040833,-7.2278339,4.9382716)"
       gradientUnits="userSpaceOnUse">
      <stop
         stop-color="#C2E9FB"
         offset="0%"
         id="stop1" />
      <stop
         stop-color="#1F5EC3"
         offset="100%"
         id="stop2" />
    </linearGradient>
  </defs>
  <g
     id="ic_snow_mid_40px"
     stroke="none"
     stroke-width="1"
     fill="none"
     fill-rule="evenodd">
    <rect
       id="Rectangle"
       x="0"
       y="0"
       width="40"
       height="40" />
    <path
       d="m 26.06881,20.818507 -2.391774,0.633229 -0.921939,-0.525745 v -0.986608 l 0.911407,-0.517382 2.402249,0.636316 c 0.04829,0.01274 0.0968,0.01903 0.144894,0.01903 0.246752,0 0.472553,-0.16291 0.539237,-0.409674 0.07991,-0.294894 -0.09695,-0.597953 -0.395223,-0.676868 l -1.316963,-0.348832 1.214056,-0.689048 c 0.267588,-0.151937 0.360191,-0.489683 0.206468,-0.754324 -0.154234,-0.264641 -0.495206,-0.356325 -0.762908,-0.204023 L 24.48176,17.685252 24.834542,16.3829 c 0.07983,-0.294809 -0.09678,-0.597925 -0.395194,-0.67684 -0.296431,-0.07687 -0.604246,0.09603 -0.684187,0.390646 l -0.641009,2.364535 -0.917113,0.520665 -0.869393,-0.496923 v -1.042679 l 1.758118,-1.737984 c 0.218249,-0.215866 0.218249,-0.565512 0,-0.781406 -0.218306,-0.215838 -0.571911,-0.215838 -0.790388,0 l -0.96773,0.956635 V 14.49079 c 2.8e-5,-0.305109 -0.2503,-0.552518 -0.558966,-0.552518 -0.30861,0 -0.55891,0.247381 -0.55891,0.552518 v 1.381912 l -0.960689,-0.949788 c -0.218335,-0.215838 -0.572025,-0.215838 -0.790417,0 -0.218334,0.215866 -0.218334,0.565512 0,0.781406 l 1.751106,1.731052 v 1.053624 l -0.862806,0.492068 -0.917114,-0.520188 -0.640554,-2.364142 c -0.0798,-0.294612 -0.386167,-0.46799 -0.684159,-0.390646 -0.298248,0.07892 -0.475249,0.382031 -0.395336,0.67684 l 0.352753,1.302127 -1.216497,-0.690479 c -0.268184,-0.15233 -0.609554,-0.06084 -0.763021,0.204163 -0.153609,0.264697 -0.06098,0.602219 0.206695,0.754156 l 1.213942,0.689048 -1.316991,0.348831 c -0.298277,0.07892 -0.475221,0.381975 -0.395336,0.676869 0.06685,0.246764 0.292598,0.409673 0.539378,0.409673 0.04806,0 0.09661,-0.0063 0.145036,-0.01903 l 2.402562,-0.63654 0.910385,0.516708 9.37e-4,0.987505 -0.922224,0.5267 -2.39166,-0.634183 c -0.296175,-0.07684 -0.604416,0.09626 -0.684414,0.390758 -0.07989,0.294781 0.09706,0.597925 0.395336,0.67642 l 1.312165,0.347905 -1.210507,0.690816 c -0.267219,0.152695 -0.358913,0.490329 -0.204367,0.75452 0.103532,0.177812 0.291349,0.276259 0.484305,0.276259 0.09473,0 0.190883,-0.02329 0.278972,-0.07426 l 1.216639,-0.694071 -0.354088,1.307122 c -0.07991,0.295286 0.09709,0.597476 0.395336,0.676868 0.04829,0.01294 0.0968,0.01906 0.144894,0.01906 0.246666,0 0.47241,-0.163163 0.539265,-0.410095 l 0.643734,-2.374329 0.91558,-0.522237 0.86116,0.491227 v 1.067122 l -1.751106,1.731109 c -0.218334,0.215809 -0.218334,0.565399 0,0.781349 0.109182,0.107933 0.251947,0.161422 0.395194,0.161422 0.142765,0 0.286041,-0.05349 0.395223,-0.161422 L 20.20977,25.00429 v 1.381436 c 0,0.305669 0.2503,0.552546 0.55891,0.552546 0.308666,0 0.558994,-0.246933 0.558994,-0.552546 v -1.388339 l 0.96773,0.956635 c 0.109153,0.107933 0.251918,0.161422 0.395194,0.161422 0.143276,0 0.286041,-0.05349 0.395194,-0.161422 0.21825,-0.215894 0.21825,-0.565484 0,-0.781349 L 21.327674,23.43466 v -1.055952 l 0.868541,-0.495549 0.915326,0.522237 0.643733,2.374329 c 0.06677,0.246932 0.292514,0.410094 0.539152,0.410094 0.04792,0 0.09658,-0.0061 0.144979,-0.01906 0.298418,-0.07939 0.474993,-0.381582 0.395194,-0.676868 l -0.354485,-1.307123 1.217093,0.694072 c 0.08812,0.05091 0.18424,0.07426 0.279,0.07426 0.192956,0 0.380716,-0.09845 0.484277,-0.276259 0.154518,-0.264191 0.06288,-0.601769 -0.204368,-0.75452 l -1.210507,-0.690704 1.312137,-0.347933 c 0.298277,-0.0785 0.475136,-0.381667 0.395223,-0.676391 -0.07943,-0.294557 -0.386394,-0.468019 -0.684159,-0.390787 z m -4.431589,0.107484 -0.86505,0.493892 -0.864424,-0.493921 -9.65e-4,-0.988375 0.865389,-0.493556 0.86505,0.494286 z"
       id="path2"
       fill="url(#linearGradient-1)"
       fill-rule="nonzero"
       style="fill:url(#linearGradient-1)" />
  </g>
</svg>
