<?xml version="1.0" encoding="UTF-8"?>
<svg width="40px" height="40px" viewBox="0 0 40 40" version="1.1" xmlns="http://www.w3.org/2000/svg" xmlns:xlink="http://www.w3.org/1999/xlink">
    <title>ic_snow_mid_40px</title>
    <defs>
        <linearGradient x1="92.6035503%" y1="75.7294004%" x2="7.3964497%" y2="24.2389356%" id="linearGradient-1">
            <stop stop-color="#C2E9FB" offset="0%"></stop>
            <stop stop-color="#1F5EC3" offset="100%"></stop>
        </linearGradient>
    </defs>
    <g id="ic_snow_mid_40px" stroke="none" stroke-width="1" fill="none" fill-rule="evenodd">
        <rect id="Rectangle" x="0" y="0" width="40" height="40"></rect>
        <path d="M17.2966439,25.880235 L14.90487,26.5134641 L13.9829304,25.9877189 L13.9829304,25.0011118 L14.8943379,24.4837295 L17.2965871,25.1200457 C17.3448756,25.1327866 17.3933913,25.1390729 17.4414811,25.1390729 C17.6882325,25.1390729 17.9140334,24.9761631 17.9807175,24.7293991 C18.0606307,24.4345058 17.8837714,24.131446 17.5854952,24.0525309 L16.268532,23.7036992 L17.4825875,23.0146514 C17.7501759,22.8627146 17.8427786,22.5249681 17.6890558,22.2603274 C17.534822,21.9956868 17.1938497,21.9040027 16.9261477,22.0563044 L15.7095941,22.7469799 L16.0623759,21.4446282 C16.1422039,21.1498191 15.9656001,20.8467032 15.6671819,20.7677881 C15.3707509,20.6909216 15.0629362,20.863822 14.9829947,21.1584347 L14.3419861,23.5229691 L13.4248726,24.0436347 L12.5554799,23.5467109 L12.5554799,22.5040325 L14.3135978,20.7660481 C14.5318473,20.5501822 14.5318473,20.2005367 14.3135978,19.9846427 C14.0952915,19.7688048 13.7416864,19.7688048 13.5232098,19.9846427 L12.5554799,20.9412778 L12.5554799,19.552518 C12.5555082,19.2474095 12.3051799,19 11.9965136,19 C11.687904,19 11.437604,19.2473814 11.437604,19.552518 L11.437604,20.9344303 L10.4769144,19.9846427 C10.2585798,19.7688048 9.90488952,19.7688048 9.68649807,19.9846427 C9.46816339,20.2005086 9.46816339,20.5501541 9.68649807,20.7660481 L11.437604,22.4971008 L11.437604,23.550724 L10.5747974,24.0427928 L9.65768391,23.5226042 L9.01712954,21.1584627 C8.93732994,20.8638501 8.63096304,20.6904726 8.3329707,20.7678161 C8.03472287,20.8467312 7.8577216,21.1498472 7.93763476,21.4446562 L8.2903882,22.7467835 L7.07389132,22.0563044 C6.80570673,21.9039747 6.46433702,21.9954623 6.31086969,22.2604678 C6.15726041,22.5251645 6.24989154,22.8626865 6.51756514,23.0146233 L7.73150707,23.7036712 L6.41451549,24.0525028 C6.11623927,24.131418 5.93929478,24.4344778 6.01917956,24.729371 C6.08603408,24.9761351 6.31177811,25.1390448 6.5585579,25.1390448 C6.60661935,25.1390448 6.6551634,25.1327585 6.70359389,25.1200176 L9.10615536,24.483477 L10.0165408,25.0001857 L10.0174777,25.9876908 L9.09525424,26.5143902 L6.70359389,25.8802069 C6.40741841,25.8033685 6.09917788,25.9764654 6.01917956,26.2709657 C5.93929478,26.5657468 6.11623927,26.8688908 6.41451549,26.9473849 L7.72668106,27.2952905 L6.51617411,27.9861063 C6.24895473,28.1388009 6.15726041,28.4764351 6.3118065,28.7406267 C6.41533875,28.9184383 6.60315597,29.0168857 6.79611147,29.0168857 C6.89084334,29.0168857 6.98699463,28.9935928 7.07508363,28.9426292 L8.29172245,28.248558 L7.93763476,29.5556805 C7.8577216,29.8509667 8.03472287,30.1531565 8.3329707,30.2325487 C8.38125926,30.2454861 8.42977492,30.2516039 8.47786476,30.2516039 C8.72453099,30.2516039 8.95027502,30.0884416 9.01712954,29.8415092 L9.6608634,27.4671806 L10.5764439,26.9449434 L11.437604,27.4361702 L11.437604,28.5032921 L9.68649807,30.2344009 C9.46816339,30.4502107 9.46816339,30.7998001 9.68649807,31.0157502 C9.7956796,31.1236832 9.93844453,31.1771726 10.0816921,31.1771726 C10.224457,31.1771726 10.3677329,31.1236832 10.4769144,31.0157502 L11.437604,30.0660188 L11.437604,31.447454 C11.437604,31.7531237 11.687904,32 11.9965136,32 C12.3051799,32 12.5555082,31.7530676 12.5555082,31.447454 L12.5555082,30.0591151 L13.5232382,31.0157502 C13.6323913,31.1236832 13.7751562,31.1771726 13.9184321,31.1771726 C14.0617081,31.1771726 14.204473,31.1236832 14.3136261,31.0157502 C14.5318757,30.7998562 14.5318757,30.4502668 14.3136261,30.2344009 L12.5555082,28.4963884 L12.5555082,27.4404359 L13.4240493,26.9448872 L14.3393744,27.4671245 L14.9831082,29.8414531 C15.0498776,30.0883855 15.2756216,30.2515478 15.5222595,30.2515478 C15.570179,30.2515478 15.6188366,30.2454299 15.6672387,30.2324926 C15.9656568,30.1531004 16.1422323,29.8509106 16.0624327,29.5556244 L15.7079475,28.2485018 L16.9250406,28.9425731 C17.013158,28.9934806 17.1092809,29.0168296 17.2040411,29.0168296 C17.3969966,29.0168296 17.5847571,28.9183821 17.6883177,28.7405706 C17.8428354,28.476379 17.7511979,28.1388009 17.4839501,27.9860502 L16.2734432,27.2953466 L17.5855803,26.947413 C17.8838566,26.8689188 18.0607159,26.5657468 17.9808027,26.2710219 C17.9013722,25.9764654 17.5944091,25.8030037 17.2966439,25.880235 Z M12.8650546,25.9877189 L12.0000053,26.4816118 L11.1355806,25.9876908 L11.1346154,24.9993157 L12.0000053,24.5057595 L12.8650546,25.0000453 L12.8650546,25.9877189 Z" id="Shape" fill="url(#linearGradient-1)" fill-rule="nonzero"></path>
        <path d="M33.2966439,15.880235 L30.90487,16.5134641 L29.9829304,15.9877189 L29.9829304,15.0011118 L30.8943379,14.4837295 L33.2965871,15.1200457 C33.3448756,15.1327866 33.3933913,15.1390729 33.4414811,15.1390729 C33.6882325,15.1390729 33.9140334,14.9761631 33.9807175,14.7293991 C34.0606307,14.4345058 33.8837714,14.131446 33.5854952,14.0525309 L32.268532,13.7036992 L33.4825875,13.0146514 C33.7501759,12.8627146 33.8427786,12.5249681 33.6890558,12.2603274 C33.534822,11.9956868 33.1938497,11.9040027 32.9261477,12.0563044 L31.7095941,12.7469799 L32.0623759,11.4446282 C32.1422039,11.1498191 31.9656001,10.8467032 31.6671819,10.7677881 C31.3707509,10.6909216 31.0629362,10.863822 30.9829947,11.1584347 L30.3419861,13.5229691 L29.4248726,14.0436347 L28.5554799,13.5467109 L28.5554799,12.5040325 L30.3135978,10.7660481 C30.5318473,10.5501822 30.5318473,10.2005367 30.3135978,9.98464268 C30.0952915,9.76880483 29.7416864,9.76880483 29.5232098,9.98464268 L28.5554799,10.9412778 L28.5554799,9.55251796 C28.5555082,9.24740951 28.3051799,9 27.9965136,9 C27.687904,9 27.437604,9.24738144 27.437604,9.55251796 L27.437604,10.9344303 L26.4769144,9.98464268 C26.2585798,9.76880483 25.9048895,9.76880483 25.6864981,9.98464268 C25.4681634,10.2005086 25.4681634,10.5501541 25.6864981,10.7660481 L27.437604,12.4971008 L27.437604,13.550724 L26.5747974,14.0427928 L25.6576839,13.5226042 L25.0171295,11.1584627 C24.9373299,10.8638501 24.630963,10.6904726 24.3329707,10.7678161 C24.0347229,10.8467312 23.8577216,11.1498472 23.9376348,11.4446562 L24.2903882,12.7467835 L23.0738913,12.0563044 C22.8057067,11.9039747 22.464337,11.9954623 22.3108697,12.2604678 C22.1572604,12.5251645 22.2498915,12.8626865 22.5175651,13.0146233 L23.7315071,13.7036712 L22.4145155,14.0525028 C22.1162393,14.131418 21.9392948,14.4344778 22.0191796,14.729371 C22.0860341,14.9761351 22.3117781,15.1390448 22.5585579,15.1390448 C22.6066193,15.1390448 22.6551634,15.1327585 22.7035939,15.1200176 L25.1061554,14.483477 L26.0165408,15.0001857 L26.0174777,15.9876908 L25.0952542,16.5143902 L22.7035939,15.8802069 C22.4074184,15.8033685 22.0991779,15.9764654 22.0191796,16.2709657 C21.9392948,16.5657468 22.1162393,16.8688908 22.4145155,16.9473849 L23.7266811,17.2952905 L22.5161741,17.9861063 C22.2489547,18.1388009 22.1572604,18.4764351 22.3118065,18.7406267 C22.4153388,18.9184383 22.603156,19.0168857 22.7961115,19.0168857 C22.8908433,19.0168857 22.9869946,18.9935928 23.0750836,18.9426292 L24.2917225,18.248558 L23.9376348,19.5556805 C23.8577216,19.8509667 24.0347229,20.1531565 24.3329707,20.2325487 C24.3812593,20.2454861 24.4297749,20.2516039 24.4778648,20.2516039 C24.724531,20.2516039 24.950275,20.0884416 25.0171295,19.8415092 L25.6608634,17.4671806 L26.5764439,16.9449434 L27.437604,17.4361702 L27.437604,18.5032921 L25.6864981,20.2344009 C25.4681634,20.4502107 25.4681634,20.7998001 25.6864981,21.0157502 C25.7956796,21.1236832 25.9384445,21.1771726 26.0816921,21.1771726 C26.224457,21.1771726 26.3677329,21.1236832 26.4769144,21.0157502 L27.437604,20.0660188 L27.437604,21.447454 C27.437604,21.7531237 27.687904,22 27.9965136,22 C28.3051799,22 28.5555082,21.7530676 28.5555082,21.447454 L28.5555082,20.0591151 L29.5232382,21.0157502 C29.6323913,21.1236832 29.7751562,21.1771726 29.9184321,21.1771726 C30.0617081,21.1771726 30.204473,21.1236832 30.3136261,21.0157502 C30.5318757,20.7998562 30.5318757,20.4502668 30.3136261,20.2344009 L28.5555082,18.4963884 L28.5555082,17.4404359 L29.4240493,16.9448872 L30.3393744,17.4671245 L30.9831082,19.8414531 C31.0498776,20.0883855 31.2756216,20.2515478 31.5222595,20.2515478 C31.570179,20.2515478 31.6188366,20.2454299 31.6672387,20.2324926 C31.9656568,20.1531004 32.1422323,19.8509106 32.0624327,19.5556244 L31.7079475,18.2485018 L32.9250406,18.9425731 C33.013158,18.9934806 33.1092809,19.0168296 33.2040411,19.0168296 C33.3969966,19.0168296 33.5847571,18.9183821 33.6883177,18.7405706 C33.8428354,18.476379 33.7511979,18.1388009 33.4839501,17.9860502 L32.2734432,17.2953466 L33.5855803,16.947413 C33.8838566,16.8689188 34.0607159,16.5657468 33.9808027,16.2710219 C33.9013722,15.9764654 33.5944091,15.8030037 33.2966439,15.880235 Z M28.8650546,15.9877189 L28.0000053,16.4816118 L27.1355806,15.9876908 L27.1346154,14.9993157 L28.0000053,14.5057595 L28.8650546,15.0000453 L28.8650546,15.9877189 Z" id="Shape" fill="url(#linearGradient-1)" fill-rule="nonzero"></path>
    </g>
</svg>